<svg xmlns="http://www.w3.org/2000/svg" xmlns:xlink="http://www.w3.org/1999/xlink" width="500" zoomAndPan="magnify" viewBox="0 0 375 374.999991" height="500" preserveAspectRatio="xMidYMid meet" version="1.0"><metadata><ContainsAiGeneratedContent>Yes</ContainsAiGeneratedContent></metadata><defs><filter x="0%" y="0%" width="100%" height="100%" id="9daa159885"><feColorMatrix values="0 0 0 0 1 0 0 0 0 1 0 0 0 0 1 0 0 0 1 0" color-interpolation-filters="sRGB"/></filter><mask id="98b2f15b1a"><g filter="url(#9daa159885)"><rect x="-37.5" width="450" fill="#000000" y="-37.499999" height="449.999989" fill-opacity="0.65"/></g></mask><clipPath id="19fd18ee46"><path d="M 26 1.039062 L 34 1.039062 L 34 10 L 26 10 Z M 26 1.039062 " clip-rule="nonzero"/></clipPath><clipPath id="9b29fc026e"><path d="M 102 1.039062 L 111 1.039062 L 111 11 L 102 11 Z M 102 1.039062 " clip-rule="nonzero"/></clipPath><clipPath id="03cb5dc3b2"><path d="M 46 1.039062 L 54 1.039062 L 54 12 L 46 12 Z M 46 1.039062 " clip-rule="nonzero"/></clipPath><clipPath id="f5561fd79a"><path d="M 85 1.039062 L 92 1.039062 L 92 10 L 85 10 Z M 85 1.039062 " clip-rule="nonzero"/></clipPath><clipPath id="3e5750ae6b"><path d="M 0.886719 5 L 128.28125 5 L 128.28125 31.789062 L 0.886719 31.789062 Z M 0.886719 5 " clip-rule="nonzero"/></clipPath><clipPath id="db4f56c1ce"><rect x="0" width="129" y="0" height="57"/></clipPath></defs><g mask="url(#98b2f15b1a)"><g transform="matrix(1, 0, 0, 1, 123, 171)"><g clip-path="url(#db4f56c1ce)"><path fill="#e0e0d5" d="M 11.488281 16.9375 L 11.480469 16.957031 C 11.308594 17.339844 11.035156 17.679688 10.691406 17.933594 C 10.304688 18.203125 9.878906 18.328125 9.476562 18.371094 L 9.476562 14.484375 C 10.097656 14.414062 10.75 14.585938 11.191406 15.027344 C 11.6875 15.527344 11.726562 16.324219 11.488281 16.9375 Z M 9.476562 7.320312 C 9.523438 3.136719 13.6875 4.734375 9.476562 9.058594 C 9.476562 9.058594 9.46875 7.972656 9.476562 7.320312 Z M 9.121094 13.289062 C 8.34375 13.457031 7.660156 13.957031 7.289062 14.597656 C 7.03125 15.035156 6.925781 15.539062 7.027344 16.027344 C 7.183594 16.757812 7.898438 17.257812 8.679688 17.371094 C 8.625 17.34375 8.574219 17.3125 8.527344 17.285156 C 7.765625 16.839844 7.535156 16.023438 8.007812 15.3125 C 8.261719 14.933594 8.667969 14.671875 9.121094 14.550781 L 9.121094 18.390625 C 8.359375 18.390625 7.742188 18.148438 7.742188 18.148438 C 6.828125 17.8125 6.316406 17.140625 6.101562 16.566406 C 5.15625 14.046875 7.3125 12.570312 9.121094 11.027344 Z M 9.476562 13.238281 L 9.476562 10.71875 C 13.511719 6.671875 11.175781 3.527344 10.511719 3.527344 C 10.109375 3.527344 9.804688 4.027344 9.625 4.328125 C 9.125 5.183594 9.070312 6.082031 9.0625 7.046875 C 9.058594 7.773438 9.078125 8.472656 9.113281 9.199219 C 9.113281 9.269531 9.117188 9.339844 9.121094 9.410156 C 7.105469 11.398438 5.710938 12.640625 5.445312 14.898438 C 5.289062 16.210938 6.035156 18.585938 9.121094 18.691406 C 9.121094 18.757812 9.121094 18.824219 9.121094 18.890625 C 9.121094 18.898438 9.121094 18.910156 9.121094 18.917969 C 9.121094 18.929688 9.121094 18.941406 9.121094 18.949219 C 9.121094 18.964844 9.121094 18.976562 9.121094 18.976562 C 9.121094 19.167969 9.121094 18.996094 9.121094 19.222656 C 9.121094 19.449219 9.121094 19.675781 9.121094 19.902344 C 9.121094 20.058594 9.121094 20.214844 9.121094 20.367188 C 9.121094 20.546875 9.109375 20.71875 9.046875 20.890625 C 8.992188 21.03125 8.910156 21.164062 8.808594 21.277344 C 8.597656 21.507812 8.296875 21.648438 7.984375 21.660156 C 7.96875 21.660156 7.953125 21.660156 7.9375 21.660156 C 7.578125 21.660156 7.261719 21.503906 7.042969 21.257812 C 7.097656 21.269531 7.15625 21.277344 7.21875 21.277344 C 7.675781 21.277344 8.046875 20.90625 8.046875 20.445312 C 8.046875 19.988281 7.675781 19.640625 7.21875 19.617188 C 6.652344 19.59375 5.902344 20.273438 6.425781 21.214844 C 6.867188 22.011719 8.074219 22.261719 8.820312 21.734375 C 9.074219 21.554688 9.273438 21.300781 9.382812 21.011719 C 9.4375 20.859375 9.476562 20.695312 9.476562 20.535156 C 9.476562 20.429688 9.476562 20.328125 9.476562 20.222656 C 9.476562 20.105469 9.476562 19.988281 9.476562 19.871094 C 9.476562 19.0625 9.476562 18.679688 9.476562 18.679688 C 10.777344 18.570312 12.050781 17.929688 12.339844 16.558594 C 12.542969 15.605469 12.269531 14.574219 11.507812 13.945312 C 10.980469 13.507812 10.289062 13.230469 9.601562 13.234375 C 9.558594 13.234375 9.515625 13.238281 9.476562 13.238281 " fill-opacity="1" fill-rule="nonzero"/><path fill="#e0e0d5" d="M 68.886719 14.390625 L 68.886719 7.414062 C 69.238281 7.722656 69.882812 7.800781 70.527344 7.570312 C 71.363281 7.277344 71.875 6.585938 71.675781 6.027344 C 71.480469 5.46875 70.644531 5.253906 69.8125 5.550781 C 69.144531 5.785156 68.679688 6.277344 68.621094 6.75 L 68.621094 12.894531 L 63.039062 14.078125 L 63.039062 8.601562 C 63.386719 8.90625 64.035156 8.984375 64.679688 8.753906 C 65.511719 8.460938 66.027344 7.769531 65.828125 7.210938 C 65.628906 6.652344 64.796875 6.4375 63.964844 6.734375 C 63.296875 6.96875 62.828125 7.460938 62.773438 7.933594 L 62.773438 15.679688 L 68.886719 14.390625 " fill-opacity="1" fill-rule="nonzero"/><g clip-path="url(#19fd18ee46)"><path fill="#e0e0d5" d="M 28.90625 2.910156 L 28.90625 7.921875 C 28.65625 7.699219 28.191406 7.644531 27.726562 7.808594 C 27.128906 8.023438 26.761719 8.519531 26.902344 8.917969 C 27.042969 9.320312 27.644531 9.472656 28.242188 9.261719 C 28.722656 9.089844 29.058594 8.738281 29.097656 8.398438 L 29.097656 3.984375 L 33.109375 3.132812 L 33.109375 7.070312 C 32.859375 6.851562 32.394531 6.792969 31.929688 6.957031 C 31.332031 7.171875 30.960938 7.667969 31.105469 8.070312 C 31.246094 8.46875 31.847656 8.621094 32.445312 8.410156 C 32.925781 8.242188 33.261719 7.886719 33.300781 7.546875 L 33.300781 1.980469 L 28.90625 2.910156 " fill-opacity="1" fill-rule="nonzero"/></g><g clip-path="url(#9b29fc026e)"><path fill="#e0e0d5" d="M 110.417969 2.933594 L 105.503906 3.972656 L 105.503906 3.816406 L 110.417969 2.773438 Z M 105.273438 3.097656 L 105.273438 9.238281 C 104.964844 8.96875 104.394531 8.898438 103.828125 9.101562 C 103.09375 9.359375 102.640625 9.96875 102.816406 10.460938 C 102.988281 10.949219 103.722656 11.140625 104.457031 10.878906 C 105.042969 10.671875 105.457031 10.238281 105.503906 9.824219 L 105.503906 4.300781 L 110.417969 3.257812 L 110.417969 8.195312 C 110.109375 7.925781 109.542969 7.859375 108.972656 8.058594 C 108.242188 8.316406 107.789062 8.925781 107.964844 9.417969 C 108.136719 9.910156 108.871094 10.097656 109.605469 9.835938 C 110.191406 9.628906 110.601562 9.199219 110.652344 8.78125 L 110.652344 1.960938 L 105.273438 3.097656 " fill-opacity="1" fill-rule="nonzero"/></g><path fill="#e0e0d5" d="M 57.621094 17.003906 L 54.550781 17.65625 L 54.550781 17.558594 L 57.621094 16.90625 Z M 54.40625 17.109375 L 54.40625 20.945312 C 54.214844 20.777344 53.855469 20.734375 53.503906 20.859375 C 53.042969 21.023438 52.761719 21.402344 52.871094 21.710938 C 52.980469 22.015625 53.4375 22.136719 53.894531 21.972656 C 54.261719 21.84375 54.519531 21.574219 54.550781 21.3125 L 54.550781 17.859375 L 57.621094 17.210938 L 57.621094 20.292969 C 57.429688 20.125 57.074219 20.082031 56.71875 20.210938 C 56.261719 20.371094 55.980469 20.75 56.085938 21.058594 C 56.195312 21.367188 56.65625 21.484375 57.113281 21.320312 C 57.480469 21.191406 57.738281 20.921875 57.769531 20.660156 L 57.769531 16.398438 L 54.40625 17.109375 " fill-opacity="1" fill-rule="nonzero"/><path fill="#e0e0d5" d="M 102.714844 20.792969 L 98.953125 19.996094 L 98.953125 19.875 L 102.714844 20.675781 Z M 102.894531 21.414062 L 102.894531 16.199219 C 102.855469 15.878906 102.539062 15.546875 102.089844 15.390625 C 101.53125 15.191406 100.96875 15.335938 100.835938 15.710938 C 100.703125 16.085938 101.046875 16.550781 101.609375 16.75 C 102.042969 16.902344 102.476562 16.851562 102.714844 16.644531 L 102.714844 20.425781 L 98.953125 19.628906 L 98.953125 15.398438 C 98.914062 15.082031 98.601562 14.75 98.152344 14.589844 C 97.589844 14.390625 97.027344 14.535156 96.894531 14.914062 C 96.761719 15.289062 97.109375 15.753906 97.667969 15.953125 C 98.101562 16.105469 98.539062 16.054688 98.773438 15.847656 L 98.773438 20.546875 L 102.894531 21.414062 " fill-opacity="1" fill-rule="nonzero"/><g clip-path="url(#03cb5dc3b2)"><path fill="#e0e0d5" d="M 51.753906 3.765625 C 51.511719 3.570312 51.328125 3.378906 51.1875 3.207031 C 52.605469 3.617188 53.128906 4.425781 53.238281 5.253906 C 52.84375 4.625 52.234375 4.152344 51.753906 3.765625 Z M 51.753906 2.390625 C 51.238281 1.976562 50.988281 1.582031 50.871094 1.328125 C 50.847656 1.273438 50.769531 1.292969 50.769531 1.351562 L 50.769531 8.804688 C 50.269531 8.367188 49.34375 8.257812 48.421875 8.582031 C 47.230469 9.007812 46.496094 9.992188 46.777344 10.792969 C 47.0625 11.589844 48.253906 11.894531 49.445312 11.472656 C 50.398438 11.136719 51.066406 10.433594 51.148438 9.757812 L 51.148438 4.570312 C 52.429688 4.929688 52.996094 5.613281 53.183594 6.34375 C 53.097656 6.757812 52.957031 7.132812 52.832031 7.410156 C 52.8125 7.453125 52.875 7.484375 52.898438 7.445312 C 53.039062 7.226562 53.160156 7.015625 53.257812 6.816406 C 53.304688 7.566406 53.042969 8.3125 52.832031 8.785156 C 52.8125 8.828125 52.875 8.859375 52.898438 8.820312 C 53.65625 7.648438 53.769531 6.726562 53.566406 5.984375 C 54.015625 4.15625 52.664062 3.121094 51.753906 2.390625 " fill-opacity="1" fill-rule="nonzero"/></g><g clip-path="url(#f5561fd79a)"><path fill="#e0e0d5" d="M 89.835938 3.019531 C 89.648438 2.863281 89.503906 2.714844 89.394531 2.578125 C 90.507812 2.902344 90.917969 3.535156 91.003906 4.1875 C 90.691406 3.695312 90.214844 3.324219 89.835938 3.019531 Z M 89.835938 1.9375 C 89.433594 1.613281 89.238281 1.304688 89.144531 1.105469 C 89.125 1.0625 89.0625 1.074219 89.0625 1.121094 L 89.0625 6.976562 C 88.671875 6.632812 87.945312 6.546875 87.21875 6.804688 C 86.285156 7.136719 85.707031 7.910156 85.929688 8.539062 C 86.152344 9.164062 87.089844 9.40625 88.023438 9.074219 C 88.773438 8.808594 89.296875 8.257812 89.359375 7.726562 L 89.359375 3.652344 C 90.371094 3.933594 90.8125 4.46875 90.960938 5.046875 C 90.894531 5.371094 90.78125 5.664062 90.683594 5.878906 C 90.667969 5.914062 90.71875 5.941406 90.738281 5.910156 C 90.847656 5.738281 90.941406 5.574219 91.019531 5.414062 C 91.054688 6.003906 90.851562 6.589844 90.683594 6.960938 C 90.667969 6.996094 90.71875 7.019531 90.738281 6.988281 C 91.332031 6.066406 91.421875 5.34375 91.261719 4.761719 C 91.613281 3.324219 90.554688 2.511719 89.835938 1.9375 " fill-opacity="1" fill-rule="nonzero"/></g><path fill="#e0e0d5" d="M 89.761719 15.671875 C 89.339844 15.332031 89.132812 15.007812 89.035156 14.796875 C 89.015625 14.753906 88.949219 14.769531 88.949219 14.816406 L 88.949219 20.960938 C 88.539062 20.601562 87.773438 20.511719 87.015625 20.78125 C 86.035156 21.128906 85.425781 21.941406 85.660156 22.601562 C 85.894531 23.257812 86.878906 23.511719 87.859375 23.164062 C 88.644531 22.882812 89.195312 22.304688 89.261719 21.746094 L 89.261719 16.335938 C 91.613281 16.996094 91.035156 18.953125 90.652344 19.8125 C 90.636719 19.847656 90.6875 19.875 90.707031 19.839844 C 92.183594 17.550781 90.695312 16.421875 89.761719 15.671875 " fill-opacity="1" fill-rule="nonzero"/><path fill="#e0e0d5" d="M 22.171875 13.449219 C 21.851562 13.195312 21.699219 12.949219 21.625 12.789062 C 21.609375 12.757812 21.558594 12.769531 21.558594 12.804688 L 21.558594 17.445312 C 21.25 17.171875 20.671875 17.101562 20.097656 17.304688 C 19.359375 17.570312 18.902344 18.183594 19.078125 18.679688 C 19.253906 19.175781 19.996094 19.367188 20.738281 19.105469 C 21.328125 18.894531 21.746094 18.457031 21.796875 18.035156 L 21.796875 13.953125 C 23.570312 14.453125 23.136719 15.929688 22.84375 16.574219 C 22.832031 16.601562 22.871094 16.621094 22.886719 16.597656 C 24 14.867188 22.875 14.015625 22.171875 13.449219 " fill-opacity="1" fill-rule="nonzero"/><path fill="#e0e0d5" d="M 77.011719 16.539062 C 76.574219 16.15625 75.765625 16.058594 74.953125 16.347656 C 73.914062 16.714844 73.269531 17.582031 73.515625 18.28125 C 73.765625 18.980469 74.808594 19.246094 75.851562 18.878906 C 76.6875 18.582031 77.273438 17.96875 77.34375 17.375 L 77.34375 9.960938 L 77.011719 9.960938 L 77.011719 16.539062 " fill-opacity="1" fill-rule="nonzero"/><path fill="#e0e0d5" d="M 122.726562 16.121094 C 122.316406 15.761719 121.554688 15.671875 120.800781 15.941406 C 119.824219 16.285156 119.222656 17.097656 119.453125 17.75 C 119.683594 18.40625 120.664062 18.65625 121.640625 18.308594 C 122.421875 18.03125 122.96875 17.457031 123.035156 16.902344 L 123.035156 9.960938 L 122.726562 9.960938 L 122.726562 16.121094 " fill-opacity="1" fill-rule="nonzero"/><path fill="#e0e0d5" d="M 65.503906 18.617188 L 66.6875 18.738281 L 66.589844 19.6875 L 65.40625 19.566406 Z M 65.269531 18.59375 L 65.175781 19.542969 L 64.519531 19.476562 L 64.496094 19.710938 L 65.148438 19.777344 L 65.078125 20.480469 L 65.3125 20.503906 L 65.382812 19.800781 L 66.566406 19.921875 L 66.480469 20.757812 L 66.714844 20.78125 L 66.800781 19.945312 L 67.453125 20.011719 L 67.476562 19.777344 L 66.824219 19.710938 L 66.917969 18.761719 L 67.574219 18.828125 L 67.597656 18.59375 L 66.941406 18.527344 L 67.015625 17.824219 L 66.78125 17.800781 L 66.710938 18.503906 L 65.527344 18.382812 L 65.613281 17.546875 L 65.378906 17.523438 L 65.292969 18.359375 L 64.640625 18.292969 L 64.617188 18.527344 L 65.269531 18.59375 " fill-opacity="1" fill-rule="nonzero"/><path fill="#e0e0d5" d="M 38.8125 15.425781 C 37.621094 15.15625 36.382812 15.671875 36.382812 16.914062 C 36.382812 17.476562 36.839844 17.933594 37.402344 17.933594 C 37.964844 17.933594 38.421875 17.476562 38.421875 16.914062 C 38.421875 16.699219 38.351562 16.496094 38.238281 16.332031 C 38.238281 16.332031 39.191406 16.28125 39.867188 17.242188 C 40.710938 18.445312 40.574219 20.183594 39.597656 21.253906 C 38.773438 22.152344 37.335938 22.617188 36.121094 22.675781 C 36.042969 22.679688 35.96875 22.679688 35.890625 22.679688 C 40.089844 23.167969 41.070312 20.328125 41.1875 19.332031 C 41.390625 17.648438 40.589844 15.824219 38.8125 15.425781 " fill-opacity="1" fill-rule="nonzero"/><path fill="#e0e0d5" d="M 42.863281 17.898438 C 42.863281 18.234375 42.589844 18.503906 42.257812 18.503906 C 41.921875 18.503906 41.652344 18.234375 41.652344 17.898438 C 41.652344 17.566406 41.921875 17.292969 42.257812 17.292969 C 42.589844 17.292969 42.863281 17.566406 42.863281 17.898438 " fill-opacity="1" fill-rule="nonzero"/><path fill="#e0e0d5" d="M 42.863281 19.578125 C 42.863281 19.914062 42.589844 20.183594 42.257812 20.183594 C 41.921875 20.183594 41.652344 19.914062 41.652344 19.578125 C 41.652344 19.242188 41.921875 18.972656 42.257812 18.972656 C 42.589844 18.972656 42.863281 19.242188 42.863281 19.578125 " fill-opacity="1" fill-rule="nonzero"/><path fill="#e0e0d5" d="M 17.769531 6.898438 C 17.125 6.753906 16.457031 7.035156 16.457031 7.707031 C 16.457031 8.007812 16.703125 8.257812 17.007812 8.257812 C 17.3125 8.257812 17.558594 8.007812 17.558594 7.707031 C 17.558594 7.585938 17.523438 7.480469 17.460938 7.390625 C 17.460938 7.390625 17.976562 7.359375 18.339844 7.882812 C 18.796875 8.53125 18.722656 9.472656 18.195312 10.050781 C 17.75 10.539062 16.972656 10.789062 16.316406 10.820312 C 16.273438 10.820312 16.230469 10.824219 16.191406 10.820312 C 18.460938 11.085938 18.992188 9.550781 19.058594 9.011719 C 19.167969 8.101562 18.734375 7.113281 17.769531 6.898438 " fill-opacity="1" fill-rule="nonzero"/><path fill="#e0e0d5" d="M 19.960938 8.238281 C 19.960938 8.417969 19.816406 8.566406 19.632812 8.566406 C 19.453125 8.566406 19.304688 8.417969 19.304688 8.238281 C 19.304688 8.058594 19.453125 7.910156 19.632812 7.910156 C 19.816406 7.910156 19.960938 8.058594 19.960938 8.238281 " fill-opacity="1" fill-rule="nonzero"/><path fill="#e0e0d5" d="M 19.960938 9.144531 C 19.960938 9.328125 19.816406 9.472656 19.632812 9.472656 C 19.453125 9.472656 19.304688 9.328125 19.304688 9.144531 C 19.304688 8.964844 19.453125 8.816406 19.632812 8.816406 C 19.816406 8.816406 19.960938 8.964844 19.960938 9.144531 " fill-opacity="1" fill-rule="nonzero"/><path fill="#e0e0d5" d="M 111.046875 15.101562 C 110.089844 14.890625 109.097656 15.304688 109.097656 16.300781 C 109.097656 16.75 109.464844 17.117188 109.914062 17.117188 C 110.367188 17.117188 110.734375 16.75 110.734375 16.300781 C 110.734375 16.125 110.679688 15.964844 110.585938 15.832031 C 110.585938 15.832031 111.351562 15.789062 111.894531 16.5625 C 112.570312 17.527344 112.460938 18.925781 111.675781 19.78125 C 111.015625 20.503906 109.863281 20.878906 108.886719 20.921875 C 108.824219 20.925781 108.761719 20.925781 108.703125 20.925781 C 112.074219 21.320312 112.859375 19.039062 112.957031 18.238281 C 113.117188 16.886719 112.476562 15.421875 111.046875 15.101562 " fill-opacity="1" fill-rule="nonzero"/><path fill="#e0e0d5" d="M 114.296875 17.089844 C 114.296875 17.359375 114.082031 17.578125 113.8125 17.578125 C 113.542969 17.578125 113.328125 17.359375 113.328125 17.089844 C 113.328125 16.824219 113.542969 16.605469 113.8125 16.605469 C 114.082031 16.605469 114.296875 16.824219 114.296875 17.089844 " fill-opacity="1" fill-rule="nonzero"/><path fill="#e0e0d5" d="M 114.296875 18.4375 C 114.296875 18.707031 114.082031 18.925781 113.8125 18.925781 C 113.542969 18.925781 113.328125 18.707031 113.328125 18.4375 C 113.328125 18.171875 113.542969 17.953125 113.8125 17.953125 C 114.082031 17.953125 114.296875 18.171875 114.296875 18.4375 " fill-opacity="1" fill-rule="nonzero"/><g clip-path="url(#3e5750ae6b)"><path fill="#e0e0d5" d="M 127.410156 9.960938 L 1.921875 9.960938 L 1.921875 5.667969 L 127.410156 5.667969 Z M 127.410156 14.503906 L 1.921875 14.503906 L 1.921875 10.210938 L 127.410156 10.210938 Z M 127.410156 19.042969 L 1.921875 19.042969 L 1.921875 14.753906 L 127.410156 14.753906 Z M 127.410156 42.8125 L 127.410156 47.101562 L 1.921875 47.101562 L 1.921875 42.8125 Z M 127.410156 51.644531 L 1.921875 51.644531 L 1.921875 47.355469 L 127.410156 47.355469 Z M 127.410156 56.1875 L 1.921875 56.1875 L 1.921875 51.898438 L 127.410156 51.898438 Z M 0.890625 5.417969 L 0.890625 56.441406 L 128.105469 56.441406 L 128.105469 42.5625 L 1.921875 42.5625 L 1.921875 19.296875 L 128.105469 19.296875 L 128.105469 5.417969 L 0.890625 5.417969 " fill-opacity="1" fill-rule="nonzero"/></g></g></g></g></svg>